<svg xmlns="http://www.w3.org/2000/svg" viewBox="0 0 280 48" width="280" height="48">
  <defs>
    <linearGradient id="lg1" x1="0%" y1="0%" x2="100%" y2="100%">
      <stop offset="0%" style="stop-color:#6366f1"/>
      <stop offset="100%" style="stop-color:#a78bfa"/>
    </linearGradient>
  </defs>
  <!-- Icon -->
  <rect x="0" y="0" width="48" height="48" rx="12" fill="url(#lg1)"/>
  <path d="M 12 36 Q 16 26 20 28 Q 24 30 26 22 Q 28 14 34 16"
        fill="none" stroke="white" stroke-opacity="0.35" stroke-width="4" stroke-linecap="round"/>
  <path d="M 12 36 Q 16 26 20 28 Q 24 30 26 22 Q 28 14 34 16"
        fill="none" stroke="white" stroke-width="2" stroke-linecap="round"
        stroke-dasharray="1 5"/>
  <circle cx="12" cy="36" r="3" fill="white"/>
  <g transform="translate(34, 9)">
    <path d="M 0 0 C -3.5 -0.7 -5 -4 -5 -6.5 C -5 -9.5 -2.8 -12 0 -12 C 2.8 -12 5 -9.5 5 -6.5 C 5 -4 3.5 -0.7 0 0 Z" fill="white"/>
    <circle cx="0" cy="-6.5" r="2.2" fill="url(#lg1)"/>
  </g>
  <!-- Text -->
  <text x="60" y="33" font-family="Inter, -apple-system, sans-serif" font-weight="700" font-size="26" fill="#1e293b">Route</text>
  <text x="147" y="33" font-family="Inter, -apple-system, sans-serif" font-weight="700" font-size="26" fill="url(#lg1)">Optim</text>
</svg>
