<svg xmlns="http://www.w3.org/2000/svg" viewBox="0 0 64 64" width="64" height="64">
  <defs>
    <linearGradient id="g1" x1="0%" y1="0%" x2="100%" y2="100%">
      <stop offset="0%" style="stop-color:#6366f1"/>
      <stop offset="100%" style="stop-color:#a78bfa"/>
    </linearGradient>
  </defs>
  <rect width="64" height="64" rx="16" fill="url(#g1)"/>
  <path d="M 18 46 Q 24 34 30 37 Q 36 40 38 30 Q 40 20 48 22"
        fill="none" stroke="white" stroke-opacity="0.35" stroke-width="5" stroke-linecap="round"/>
  <path d="M 18 46 Q 24 34 30 37 Q 36 40 38 30 Q 40 20 48 22"
        fill="none" stroke="white" stroke-width="2.5" stroke-linecap="round"
        stroke-dasharray="1 6"/>
  <circle cx="18" cy="46" r="4" fill="white"/>
  <g transform="translate(48, 14)">
    <path d="M 0 0 C -5 -1 -7 -6 -7 -9 C -7 -13 -4 -16 0 -16 C 4 -16 7 -13 7 -9 C 7 -6 5 -1 0 0 Z" fill="white"/>
    <circle cx="0" cy="-9" r="3" fill="url(#g1)"/>
  </g>
</svg>
